<?xml version="1.0" encoding="utf-8"?>
<svg xmlns="http://www.w3.org/2000/svg" viewBox="8.3984 8.5469 63.2695 94.9063" width="84.3593px" height="126.542px">
  <defs>
    <clipPath id="b87dcda686">
      <path d="M 8.398438 8.546875 L 40.035156 8.546875 L 40.035156 40.183594 L 8.398438 40.183594 Z M 8.398438 8.546875 " clip-rule="nonzero"/>
    </clipPath>
    <clipPath id="63ccaf2267">
      <rect x="0" width="33" y="0" height="33"/>
    </clipPath>
    <clipPath id="b5b2dde973">
      <path d="M 0.398438 0.546875 L 32.035156 0.546875 L 32.035156 32.183594 L 0.398438 32.183594 Z M 0.398438 0.546875 " clip-rule="nonzero"/>
    </clipPath>
    <clipPath id="bc4d2f2801">
      <path d="M 40.035156 40.183594 L 71.667969 40.183594 L 71.667969 71.820312 L 40.035156 71.820312 Z M 40.035156 40.183594 " clip-rule="nonzero"/>
    </clipPath>
    <clipPath id="f30782ca33">
      <rect x="0" width="32" y="0" height="32"/>
    </clipPath>
    <clipPath id="783478450d">
      <path d="M 0.0351562 0.183594 L 31.667969 0.183594 L 31.667969 31.820312 L 0.0351562 31.820312 Z M 0.0351562 0.183594 " clip-rule="nonzero"/>
    </clipPath>
    <clipPath id="22dc46bcc1">
      <path d="M 8.398438 71.820312 L 40.035156 71.820312 L 40.035156 103.453125 L 8.398438 103.453125 Z M 8.398438 71.820312 " clip-rule="nonzero"/>
    </clipPath>
    <clipPath id="aab193af3c">
      <rect x="0" width="33" y="0" height="33"/>
    </clipPath>
    <clipPath id="940702fb1c">
      <path d="M 0.398438 0.820312 L 32.035156 0.820312 L 32.035156 32.453125 L 0.398438 32.453125 Z M 0.398438 0.820312 " clip-rule="nonzero"/>
    </clipPath>
  </defs>
  <g>
    <g clip-path="url(#b87dcda686)">
      <g transform="matrix(1, 0, 0, 1, 8, 8)">
        <g clip-path="url(#63ccaf2267)">
          <g clip-path="url(#b5b2dde973)">
            <path fill="#464555" d="M 0.398438 0.546875 L 32.035156 0.546875 L 32.035156 32.183594 L 0.398438 32.183594 Z M 0.398438 0.546875 " fill-opacity="1" fill-rule="nonzero"/>
          </g>
        </g>
      </g>
    </g>
    <g clip-path="url(#bc4d2f2801)">
      <g transform="matrix(1, 0, 0, 1, 40, 40)">
        <g clip-path="url(#f30782ca33)">
          <g clip-path="url(#783478450d)">
            <path fill="#2563eb" d="M 0.0351562 0.183594 L 31.667969 0.183594 L 31.667969 31.820312 L 0.0351562 31.820312 Z M 0.0351562 0.183594 " fill-opacity="1" fill-rule="nonzero"/>
          </g>
        </g>
      </g>
    </g>
    <g clip-path="url(#22dc46bcc1)">
      <g transform="matrix(1, 0, 0, 1, 8, 71)">
        <g clip-path="url(#aab193af3c)">
          <g clip-path="url(#940702fb1c)">
            <path fill="#aaa9bc" d="M 0.398438 0.820312 L 32.035156 0.820312 L 32.035156 32.453125 L 0.398438 32.453125 Z M 0.398438 0.820312 " fill-opacity="1" fill-rule="nonzero"/>
          </g>
        </g>
      </g>
    </g>
  </g>
</svg>