<svg width="443" height="97" viewBox="0 0 443 97" fill="none" xmlns="http://www.w3.org/2000/svg">
<rect width="32.2602" height="32.2602" rx="1" fill="#464555"/>
<rect y="64" width="32.2602" height="32.2602" rx="1" fill="#AAA9BC"/>
<rect x="32.2602" y="32.2602" width="31.7398" height="31.7398" rx="1" fill="#2563EB"/>
<path d="M434.689 72.8196V62.9335L434.247 61.0798V44.2205C434.247 40.6309 433.188 37.8651 431.07 35.9232C429.01 33.9224 425.891 32.922 421.713 32.922C418.947 32.922 416.24 33.3928 413.592 34.3343C410.944 35.217 408.708 36.4234 406.884 37.9534L403.353 31.598C405.766 29.6561 408.649 28.1849 412.004 27.1846C415.417 26.1253 418.977 25.5957 422.684 25.5957C429.098 25.5957 434.041 27.1551 437.513 30.274C440.985 33.3928 442.721 38.1593 442.721 44.5735V72.8196H434.689ZM419.33 73.3492C415.858 73.3492 412.798 72.7607 410.15 71.5838C407.561 70.4069 405.56 68.7886 404.148 66.729C402.735 64.6106 402.029 62.2273 402.029 59.5793C402.029 57.0489 402.618 54.7539 403.795 52.6943C405.03 50.6347 407.002 48.987 409.709 47.7512C412.474 46.5155 416.182 45.8976 420.83 45.8976H435.66V51.9881H421.184C416.947 51.9881 414.093 52.6943 412.621 54.1066C411.15 55.5189 410.415 57.2254 410.415 59.2262C410.415 61.5212 411.327 63.3748 413.151 64.7871C414.975 66.1406 417.506 66.8173 420.742 66.8173C423.92 66.8173 426.686 66.1112 429.039 64.6989C431.452 63.2865 433.188 61.2269 434.247 58.52L435.924 64.3458C434.806 67.1115 432.835 69.3183 430.01 70.9659C427.186 72.5548 423.626 73.3492 419.33 73.3492Z" fill="black"/>
<path d="M385.164 73.3492C380.457 73.3492 376.808 72.084 374.219 69.5536C371.63 67.0233 370.335 63.4042 370.335 58.6966V15.7979H378.809V58.3435C378.809 60.8739 379.427 62.8158 380.663 64.1692C381.957 65.5227 383.781 66.1994 386.135 66.1994C388.783 66.1994 390.99 65.4639 392.755 63.9927L395.403 70.0833C394.109 71.2013 392.549 72.0252 390.725 72.5548C388.96 73.0844 387.106 73.3492 385.164 73.3492ZM362.391 33.0103V26.0371H392.226V33.0103H362.391Z" fill="black"/>
<path d="M345.385 72.8196V62.9335L344.944 61.0798V44.2205C344.944 40.6309 343.885 37.8651 341.766 35.9232C339.707 33.9224 336.588 32.922 332.41 32.922C329.644 32.922 326.937 33.3928 324.289 34.3343C321.641 35.217 319.405 36.4234 317.581 37.9534L314.05 31.598C316.463 29.6561 319.346 28.1849 322.7 27.1846C326.113 26.1253 329.673 25.5957 333.381 25.5957C339.795 25.5957 344.738 27.1551 348.21 30.274C351.682 33.3928 353.418 38.1593 353.418 44.5735V72.8196H345.385ZM330.027 73.3492C326.555 73.3492 323.495 72.7607 320.847 71.5838C318.257 70.4069 316.257 68.7886 314.844 66.729C313.432 64.6106 312.726 62.2273 312.726 59.5793C312.726 57.0489 313.314 54.7539 314.491 52.6943C315.727 50.6347 317.698 48.987 320.405 47.7512C323.171 46.5155 326.878 45.8976 331.527 45.8976H346.356V51.9881H331.88C327.643 51.9881 324.789 52.6943 323.318 54.1066C321.847 55.5189 321.111 57.2254 321.111 59.2262C321.111 61.5212 322.023 63.3748 323.848 64.7871C325.672 66.1406 328.202 66.8173 331.439 66.8173C334.617 66.8173 337.382 66.1112 339.736 64.6989C342.149 63.2865 343.885 61.2269 344.944 58.52L346.621 64.3458C345.503 67.1115 343.532 69.3183 340.707 70.9659C337.882 72.5548 334.322 73.3492 330.027 73.3492Z" fill="black"/>
<path d="M275.508 73.3492C270.977 73.3492 266.917 72.3488 263.327 70.3481C259.796 68.3473 257.001 65.5521 254.941 61.9625C252.882 58.3729 251.852 54.1949 251.852 49.4283C251.852 44.6618 252.882 40.5132 254.941 36.9824C257.001 33.3928 259.796 30.5976 263.327 28.5969C266.917 26.5961 270.977 25.5957 275.508 25.5957C279.451 25.5957 283.011 26.4784 286.189 28.2438C289.366 30.0092 291.897 32.6572 293.78 36.188C295.722 39.7188 296.693 44.1322 296.693 49.4283C296.693 54.7245 295.751 59.1379 293.868 62.6687C292.044 66.1994 289.543 68.8769 286.365 70.7011C283.187 72.4665 279.568 73.3492 275.508 73.3492ZM276.214 65.9346C279.157 65.9346 281.805 65.2579 284.158 63.9044C286.571 62.551 288.454 60.6385 289.808 58.167C291.22 55.6366 291.926 52.7237 291.926 49.4283C291.926 46.0741 291.22 43.1907 289.808 40.778C288.454 38.3065 286.571 36.394 284.158 35.0405C281.805 33.687 279.157 33.0103 276.214 33.0103C273.213 33.0103 270.536 33.687 268.182 35.0405C265.828 36.394 263.945 38.3065 262.533 40.778C261.12 43.1907 260.414 46.0741 260.414 49.4283C260.414 52.7237 261.12 55.6366 262.533 58.167C263.945 60.6385 265.828 62.551 268.182 63.9044C270.536 65.2579 273.213 65.9346 276.214 65.9346ZM292.191 72.8196V60.1971L292.721 49.3401L291.838 38.483V7.32407H300.312V72.8196H292.191Z" fill="black"/>
<path d="M231.524 72.8196V7.32407H239.998V72.8196H231.524Z" fill="black"/>
<path d="M176.024 72.8196L196.15 46.692L196.061 51.0172L176.907 26.037H186.352L201.004 45.2797H197.385L212.038 26.037H221.306L201.887 51.1937L201.975 46.692L222.277 72.8196H212.656L197.209 52.3412L200.651 52.8708L185.469 72.8196H176.024Z" fill="black"/>
<path d="M158.168 72.8196V26.037H166.641V72.8196H158.168ZM162.405 17.0336C160.757 17.0336 159.374 16.504 158.256 15.4448C157.197 14.3855 156.667 13.0909 156.667 11.5609C156.667 9.9721 157.197 8.64807 158.256 7.58884C159.374 6.52961 160.757 6 162.405 6C164.052 6 165.406 6.52961 166.465 7.58884C167.583 8.58922 168.142 9.85441 168.142 11.3844C168.142 12.9732 167.612 14.3267 166.553 15.4448C165.494 16.504 164.111 17.0336 162.405 17.0336Z" fill="black"/>
<path d="M122.804 73.3492C118.92 73.3492 115.36 72.4665 112.123 70.7011C108.945 68.8769 106.386 66.1994 104.444 62.6687C102.561 59.1379 101.619 54.7245 101.619 49.4283C101.619 44.1322 102.531 39.7187 104.355 36.188C106.238 32.6572 108.769 30.0092 111.946 28.2438C115.183 26.4784 118.802 25.5957 122.804 25.5957C127.394 25.5957 131.454 26.5961 134.985 28.5969C138.515 30.5976 141.311 33.3928 143.37 36.9824C145.43 40.5132 146.46 44.6618 146.46 49.4283C146.46 54.1948 145.43 58.3729 143.37 61.9625C141.311 65.5521 138.515 68.3473 134.985 70.3481C131.454 72.3488 127.394 73.3492 122.804 73.3492ZM98 89.9438V26.0371H106.121V38.6595L105.591 49.5166L106.474 60.3737V89.9438H98ZM122.097 65.9346C125.099 65.9346 127.776 65.2579 130.13 63.9044C132.543 62.551 134.426 60.6385 135.779 58.1669C137.191 55.6366 137.898 52.7237 137.898 49.4283C137.898 46.0741 137.191 43.1907 135.779 40.778C134.426 38.3064 132.543 36.3939 130.13 35.0405C127.776 33.687 125.099 33.0103 122.097 33.0103C119.155 33.0103 116.478 33.687 114.065 35.0405C111.711 36.3939 109.828 38.3064 108.416 40.778C107.062 43.1907 106.386 46.0741 106.386 49.4283C106.386 52.7237 107.062 55.6366 108.416 58.1669C109.828 60.6385 111.711 62.551 114.065 63.9044C116.478 65.2579 119.155 65.9346 122.097 65.9346Z" fill="black"/>
</svg>
