<svg xmlns="http://www.w3.org/2000/svg" xmlns:xlink="http://www.w3.org/1999/xlink" width="500" zoomAndPan="magnify" viewBox="0 0 375 112.499997" height="150" preserveAspectRatio="xMidYMid meet" version="1.0"><defs><g/><clipPath id="b87dcda686"><path d="M 8.398438 8.546875 L 40.035156 8.546875 L 40.035156 40.183594 L 8.398438 40.183594 Z M 8.398438 8.546875 " clip-rule="nonzero"/></clipPath><clipPath id="b5b2dde973"><path d="M 0.398438 0.546875 L 32.035156 0.546875 L 32.035156 32.183594 L 0.398438 32.183594 Z M 0.398438 0.546875 " clip-rule="nonzero"/></clipPath><clipPath id="63ccaf2267"><rect x="0" width="33" y="0" height="33"/></clipPath><clipPath id="bc4d2f2801"><path d="M 40.035156 40.183594 L 71.667969 40.183594 L 71.667969 71.820312 L 40.035156 71.820312 Z M 40.035156 40.183594 " clip-rule="nonzero"/></clipPath><clipPath id="783478450d"><path d="M 0.0351562 0.183594 L 31.667969 0.183594 L 31.667969 31.820312 L 0.0351562 31.820312 Z M 0.0351562 0.183594 " clip-rule="nonzero"/></clipPath><clipPath id="f30782ca33"><rect x="0" width="32" y="0" height="32"/></clipPath><clipPath id="22dc46bcc1"><path d="M 8.398438 71.820312 L 40.035156 71.820312 L 40.035156 103.453125 L 8.398438 103.453125 Z M 8.398438 71.820312 " clip-rule="nonzero"/></clipPath><clipPath id="940702fb1c"><path d="M 0.398438 0.820312 L 32.035156 0.820312 L 32.035156 32.453125 L 0.398438 32.453125 Z M 0.398438 0.820312 " clip-rule="nonzero"/></clipPath><clipPath id="aab193af3c"><rect x="0" width="33" y="0" height="33"/></clipPath><clipPath id="8539a2082a"><rect x="0" width="271" y="0" height="102"/></clipPath><clipPath id="f51f4fff5e"><path d="M 359 69 L 364 69 L 364 75 L 359 75 Z M 359 69 " clip-rule="nonzero"/></clipPath><clipPath id="beac71c785"><path d="M 356.640625 71.820312 C 356.640625 74.570312 358.871094 76.800781 361.621094 76.800781 C 364.371094 76.800781 366.601562 74.570312 366.601562 71.820312 C 366.601562 69.066406 364.371094 66.839844 361.621094 66.839844 C 358.871094 66.839844 356.640625 69.066406 356.640625 71.820312 Z M 356.640625 71.820312 " clip-rule="nonzero"/></clipPath><clipPath id="7e25832c9b"><path d="M 356.640625 66.839844 L 366.347656 66.839844 L 366.347656 76.546875 L 356.640625 76.546875 Z M 356.640625 66.839844 " clip-rule="nonzero"/></clipPath><clipPath id="1b5285296b"><path d="M 356.640625 71.820312 C 356.640625 74.570312 358.871094 76.800781 361.621094 76.800781 C 364.371094 76.800781 366.601562 74.570312 366.601562 71.820312 C 366.601562 69.066406 364.371094 66.839844 361.621094 66.839844 C 358.871094 66.839844 356.640625 69.066406 356.640625 71.820312 Z M 356.640625 71.820312 " clip-rule="nonzero"/></clipPath></defs><g clip-path="url(#b87dcda686)"><g transform="matrix(1, 0, 0, 1, 8, 8)"><g clip-path="url(#63ccaf2267)"><g clip-path="url(#b5b2dde973)"><path fill="#464555" d="M 0.398438 0.546875 L 32.035156 0.546875 L 32.035156 32.183594 L 0.398438 32.183594 Z M 0.398438 0.546875 " fill-opacity="1" fill-rule="nonzero"/></g></g></g></g><g clip-path="url(#bc4d2f2801)"><g transform="matrix(1, 0, 0, 1, 40, 40)"><g clip-path="url(#f30782ca33)"><g clip-path="url(#783478450d)"><path fill="#2563eb" d="M 0.0351562 0.183594 L 31.667969 0.183594 L 31.667969 31.820312 L 0.0351562 31.820312 Z M 0.0351562 0.183594 " fill-opacity="1" fill-rule="nonzero"/></g></g></g></g><g clip-path="url(#22dc46bcc1)"><g transform="matrix(1, 0, 0, 1, 8, 71)"><g clip-path="url(#aab193af3c)"><g clip-path="url(#940702fb1c)"><path fill="#aaa9bc" d="M 0.398438 0.820312 L 32.035156 0.820312 L 32.035156 32.453125 L 0.398438 32.453125 Z M 0.398438 0.820312 " fill-opacity="1" fill-rule="nonzero"/></g></g></g></g><g transform="matrix(1, 0, 0, 1, 85, 1)"><g clip-path="url(#8539a2082a)"><g fill="#000000" fill-opacity="1"><g transform="translate(1.007666, 74.806727)"><g><path d="M 25.890625 0.890625 C 23.085938 0.890625 20.503906 0.351562 18.140625 -0.71875 C 15.773438 -1.800781 13.789062 -3.257812 12.1875 -5.09375 L 12.1875 13.765625 L 6.40625 13.765625 L 6.40625 -35.734375 L 11.15625 -35.734375 L 11.84375 -30.234375 C 13.445312 -32.253906 15.453125 -33.828125 17.859375 -34.953125 C 20.273438 -36.078125 22.953125 -36.640625 25.890625 -36.640625 C 29.421875 -36.640625 32.550781 -35.820312 35.28125 -34.1875 C 38.019531 -32.5625 40.164062 -30.347656 41.71875 -27.546875 C 43.28125 -24.742188 44.0625 -21.53125 44.0625 -17.90625 C 44.0625 -14.28125 43.28125 -11.054688 41.71875 -8.234375 C 40.164062 -5.410156 38.019531 -3.179688 35.28125 -1.546875 C 32.550781 0.078125 29.421875 0.890625 25.890625 0.890625 Z M 11.984375 -17.90625 C 11.984375 -15.332031 12.546875 -13.046875 13.671875 -11.046875 C 14.796875 -9.054688 16.34375 -7.5 18.3125 -6.375 C 20.289062 -5.25 22.566406 -4.6875 25.140625 -4.6875 C 27.753906 -4.6875 30.046875 -5.25 32.015625 -6.375 C 33.992188 -7.5 35.53125 -9.054688 36.625 -11.046875 C 37.726562 -13.046875 38.28125 -15.332031 38.28125 -17.90625 C 38.28125 -20.476562 37.726562 -22.757812 36.625 -24.75 C 35.53125 -26.75 33.992188 -28.3125 32.015625 -29.4375 C 30.046875 -30.5625 27.753906 -31.125 25.140625 -31.125 C 22.566406 -31.125 20.289062 -30.5625 18.3125 -29.4375 C 16.34375 -28.3125 14.796875 -26.75 13.671875 -24.75 C 12.546875 -22.757812 11.984375 -20.476562 11.984375 -17.90625 Z M 11.984375 -17.90625 "/></g></g></g><g fill="#000000" fill-opacity="1"><g transform="translate(48.651937, 74.806727)"><g><path d="M 6.40625 0 L 6.40625 -35.734375 L 12.1875 -35.734375 L 12.1875 0 Z M 4.609375 -46.140625 C 4.609375 -47.460938 5.03125 -48.550781 5.875 -49.40625 C 6.726562 -50.257812 7.867188 -50.6875 9.296875 -50.6875 C 10.722656 -50.6875 11.847656 -50.257812 12.671875 -49.40625 C 13.492188 -48.550781 13.90625 -47.460938 13.90625 -46.140625 C 13.90625 -44.847656 13.492188 -43.773438 12.671875 -42.921875 C 11.847656 -42.078125 10.722656 -41.65625 9.296875 -41.65625 C 7.867188 -41.65625 6.726562 -42.078125 5.875 -42.921875 C 5.03125 -43.773438 4.609375 -44.847656 4.609375 -46.140625 Z M 4.609375 -46.140625 "/></g></g></g><g fill="#000000" fill-opacity="1"><g transform="translate(67.241468, 74.806727)"><g><path d="M 2.34375 0 L 16.046875 -18.171875 L 3.03125 -35.734375 L 9.984375 -35.734375 L 15.5625 -28.15625 L 19.828125 -22.234375 L 24.171875 -28.15625 L 29.75 -35.734375 L 36.640625 -35.734375 L 23.625 -18.171875 L 37.328125 0 L 30.296875 0 L 24.234375 -8.125 L 19.90625 -14.109375 L 15.5 -8.125 L 9.359375 0 Z M 2.34375 0 "/></g></g></g><g fill="#000000" fill-opacity="1"><g transform="translate(106.967971, 74.806727)"><g><path d="M 6.40625 0 L 6.40625 -50.953125 L 12.1875 -50.953125 L 12.1875 0 Z M 6.40625 0 "/></g></g></g><g fill="#000000" fill-opacity="1"><g transform="translate(125.557502, 74.806727)"><g><path d="M 38.625 0 L 38.625 -21.6875 L 13.078125 -21.6875 L 13.078125 0 L 7.03125 0 L 7.03125 -48.203125 L 13.078125 -48.203125 L 13.078125 -27.46875 L 38.625 -27.46875 L 38.625 -48.203125 L 44.6875 -48.203125 L 44.6875 0 Z M 38.625 0 "/></g></g></g><g fill="#000000" fill-opacity="1"><g transform="translate(177.26392, 74.806727)"><g><path d="M 20.65625 0.890625 C 15.976562 0.890625 12.316406 -0.617188 9.671875 -3.640625 C 7.035156 -6.671875 5.71875 -10.738281 5.71875 -15.84375 L 5.71875 -35.734375 L 11.5 -35.734375 L 11.5 -16.390625 C 11.5 -12.804688 12.378906 -9.957031 14.140625 -7.84375 C 15.910156 -5.738281 18.335938 -4.6875 21.421875 -4.6875 C 24.765625 -4.6875 27.476562 -5.878906 29.5625 -8.265625 C 31.65625 -10.648438 32.703125 -13.796875 32.703125 -17.703125 L 32.703125 -35.734375 L 38.5 -35.734375 L 38.5 0 L 33.734375 0 L 33.125 -5.234375 C 31.5625 -3.117188 29.6875 -1.566406 27.5 -0.578125 C 25.320312 0.398438 23.039062 0.890625 20.65625 0.890625 Z M 20.65625 0.890625 "/></g></g></g><g fill="#000000" fill-opacity="1"><g transform="translate(222.154169, 74.806727)"><g><path d="M 25.890625 0.890625 C 22.953125 0.890625 20.273438 0.316406 17.859375 -0.828125 C 15.453125 -1.972656 13.445312 -3.535156 11.84375 -5.515625 L 11.15625 0 L 6.40625 0 L 6.40625 -50.953125 L 12.1875 -50.953125 L 12.1875 -30.640625 C 13.789062 -32.523438 15.773438 -33.992188 18.140625 -35.046875 C 20.503906 -36.109375 23.085938 -36.640625 25.890625 -36.640625 C 29.421875 -36.640625 32.550781 -35.820312 35.28125 -34.1875 C 38.019531 -32.5625 40.164062 -30.347656 41.71875 -27.546875 C 43.28125 -24.742188 44.0625 -21.53125 44.0625 -17.90625 C 44.0625 -14.28125 43.28125 -11.054688 41.71875 -8.234375 C 40.164062 -5.410156 38.019531 -3.179688 35.28125 -1.546875 C 32.550781 0.078125 29.421875 0.890625 25.890625 0.890625 Z M 11.984375 -17.90625 C 11.984375 -15.332031 12.546875 -13.046875 13.671875 -11.046875 C 14.796875 -9.054688 16.34375 -7.5 18.3125 -6.375 C 20.289062 -5.25 22.566406 -4.6875 25.140625 -4.6875 C 27.753906 -4.6875 30.046875 -5.25 32.015625 -6.375 C 33.992188 -7.5 35.53125 -9.054688 36.625 -11.046875 C 37.726562 -13.046875 38.28125 -15.332031 38.28125 -17.90625 C 38.28125 -20.476562 37.726562 -22.757812 36.625 -24.75 C 35.53125 -26.75 33.992188 -28.3125 32.015625 -29.4375 C 30.046875 -30.5625 27.753906 -31.125 25.140625 -31.125 C 22.566406 -31.125 20.289062 -30.5625 18.3125 -29.4375 C 16.34375 -28.3125 14.796875 -26.75 13.671875 -24.75 C 12.546875 -22.757812 11.984375 -20.476562 11.984375 -17.90625 Z M 11.984375 -17.90625 "/></g></g></g></g></g><g clip-path="url(#f51f4fff5e)"><g clip-path="url(#beac71c785)"><path fill="#000000" d="M 361.566406 71.695312 C 362.121094 71.695312 362.484375 71.390625 362.484375 70.835938 C 362.484375 70.277344 362.121094 70.011719 361.550781 70.011719 L 360.664062 70.011719 L 360.664062 71.695312 Z M 359.875 69.289062 L 361.597656 69.289062 C 362.628906 69.289062 363.289062 69.839844 363.289062 70.820312 C 363.289062 71.5625 362.878906 72.03125 362.292969 72.234375 L 363.417969 74.097656 L 362.5 74.097656 L 361.484375 72.402344 C 361.476562 72.394531 361.226562 72.402344 361.222656 72.402344 L 360.664062 72.402344 L 360.664062 74.097656 L 359.875 74.097656 L 359.875 69.289062 " fill-opacity="1" fill-rule="nonzero"/></g></g><g clip-path="url(#7e25832c9b)"><g clip-path="url(#1b5285296b)"><path fill="#000000" d="M 361.492188 67.671875 C 360.949219 67.671875 360.421875 67.777344 359.929688 67.988281 C 359.449219 68.1875 359.019531 68.480469 358.652344 68.847656 C 358.28125 69.21875 357.992188 69.648438 357.789062 70.125 C 357.578125 70.621094 357.472656 71.148438 357.472656 71.691406 C 357.472656 72.234375 357.578125 72.761719 357.789062 73.253906 C 357.992188 73.734375 358.28125 74.164062 358.652344 74.535156 C 359.019531 74.902344 359.449219 75.191406 359.929688 75.394531 C 360.421875 75.605469 360.949219 75.710938 361.492188 75.710938 C 362.035156 75.710938 362.5625 75.605469 363.058594 75.394531 C 363.535156 75.191406 363.964844 74.902344 364.335938 74.535156 C 364.703125 74.164062 364.996094 73.734375 365.195312 73.253906 C 365.40625 72.761719 365.511719 72.234375 365.511719 71.691406 C 365.511719 71.148438 365.40625 70.621094 365.195312 70.125 C 364.996094 69.648438 364.703125 69.21875 364.335938 68.847656 C 363.964844 68.480469 363.535156 68.1875 363.058594 67.988281 C 362.5625 67.777344 362.035156 67.671875 361.492188 67.671875 Z M 361.492188 76.542969 C 360.839844 76.542969 360.203125 76.414062 359.605469 76.164062 C 359.027344 75.917969 358.507812 75.566406 358.0625 75.121094 C 357.617188 74.675781 357.265625 74.15625 357.019531 73.578125 C 356.769531 72.980469 356.640625 72.347656 356.640625 71.691406 C 356.640625 71.035156 356.769531 70.398438 357.019531 69.800781 C 357.265625 69.222656 357.617188 68.703125 358.0625 68.257812 C 358.507812 67.8125 359.027344 67.464844 359.605469 67.21875 C 360.203125 66.964844 360.839844 66.835938 361.492188 66.835938 C 362.148438 66.835938 362.785156 66.964844 363.382812 67.21875 C 363.960938 67.464844 364.480469 67.8125 364.925781 68.257812 C 365.371094 68.703125 365.71875 69.222656 365.964844 69.800781 C 366.21875 70.398438 366.347656 71.035156 366.347656 71.691406 C 366.347656 72.347656 366.21875 72.980469 365.964844 73.578125 C 365.71875 74.15625 365.371094 74.675781 364.925781 75.121094 C 364.480469 75.566406 363.960938 75.917969 363.382812 76.164062 C 362.785156 76.414062 362.148438 76.542969 361.492188 76.542969 " fill-opacity="1" fill-rule="nonzero"/></g></g></svg>